<svg version="1.1" id="Layer_1" xmlns:x="ns_extend;" xmlns:i="ns_ai;" xmlns:graph="ns_graphs;" xmlns="http://www.w3.org/2000/svg" xmlns:xlink="http://www.w3.org/1999/xlink" x="0px" y="0px" viewBox="0 0 40 40" style="enable-background:new 0 0 40 40;" xml:space="preserve">
 <style type="text/css">
  .st0{fill:#64BE49;}
 </style>
 <metadata>
  <sfw xmlns="ns_sfw;">
   <slices>
   </slices>
   <sliceSourceBounds bottomLeftOrigin="true" height="40" width="40" x="0" y="0">
   </sliceSourceBounds>
  </sfw>
 </metadata>
 <g>
  <path class="st0" d="M24.3,19.5l-11.8,6.8v6.2l11.8-6.8V19.5z M20,0C9,0,0,8.9,0,20c0,6.3,2.9,11.8,7.4,15.5l5.1-3
		C8.2,30,5.4,25.3,5.4,20c0-8.1,6.5-14.6,14.6-14.6c2.7,0,5.3,0.8,7.5,2L12.5,16v6.2l14.9-8.6V7.4c4.3,2.5,7.1,7.2,7.1,12.5
		c0,8.1-6.5,14.6-14.6,14.6c-2.7,0-5.3-0.8-7.5-2v6c2.3,0.9,4.8,1.5,7.5,1.5c11,0,20-9,20-20C40,8.9,31,0,20,0z">
  </path>
 </g>
</svg>